PathFileType	4	(X/Y/Z)	Kaydara	
DataRate	CameraRate	NumFrames	NumMarkers	Units	OrigDataRate	OrigDataStartFrame	OrigNumFrames	
120.00	120.00	4	72	mm	120.00	135	268	
Frame#	Time	Hips			RightUpLeg			RightLeg			RightFoot			RightFoot_End			LeftUpLeg			LeftLeg			LeftFoot			LeftFoot_End			Spine			Spine1			Spine2			Spine3			Neck			Head			Head_End			RightShoulder			RightArm			RightForeArm			RightHand			RightHandThumb1			RightHandThumb2			RightHandThumb3			RightHandThumb3_End			RightInHandIndex			RightHandIndex1			RightHandIndex2			RightHandIndex3			RightHandIndex3_End			RightInHandMiddle			RightHandMiddle1			RightHandMiddle2			RightHandMiddle3			RightHandMiddle3_End			RightInHandRing			RightHandRing1			RightHandRing2			RightHandRing3			RightHandRing3_End			RightInHandPinky			RightHandPinky1			RightHandPinky2			RightHandPinky3			RightHandPinky3_End			LeftShoulder			LeftArm			LeftForeArm			LeftHand			LeftHandThumb1			LeftHandThumb2			LeftHandThumb3			LeftHandThumb3_End			LeftInHandIndex			LeftHandIndex1			LeftHandIndex2			LeftHandIndex3			LeftHandIndex3_End			LeftInHandMiddle			LeftHandMiddle1			LeftHandMiddle2			LeftHandMiddle3			LeftHandMiddle3_End			LeftInHandRing			LeftHandRing1			LeftHandRing2			LeftHandRing3			LeftHandRing3_End			LeftInHandPinky			LeftHandPinky1			LeftHandPinky2			LeftHandPinky3			LeftHandPinky3_End			
		X1	Y1	Z1	X2	Y2	Z2	X3	Y3	Z3	X4	Y4	Z4	X5	Y5	Z5	X6	Y6	Z6	X7	Y7	Z7	X8	Y8	Z8	X9	Y9	Z9	X10	Y10	Z10	X11	Y11	Z11	X12	Y12	Z12	X13	Y13	Z13	X14	Y14	Z14	X15	Y15	Z15	X16	Y16	Z16	X17	Y17	Z17	X18	Y18	Z18	X19	Y19	Z19	X20	Y20	Z20	X21	Y21	Z21	X22	Y22	Z22	X23	Y23	Z23	X24	Y24	Z24	X25	Y25	Z25	X26	Y26	Z26	X27	Y27	Z27	X28	Y28	Z28	X29	Y29	Z29	X30	Y30	Z30	X31	Y31	Z31	X32	Y32	Z32	X33	Y33	Z33	X34	Y34	Z34	X35	Y35	Z35	X36	Y36	Z36	X37	Y37	Z37	X38	Y38	Z38	X39	Y39	Z39	X40	Y40	Z40	X41	Y41	Z41	X42	Y42	Z42	X43	Y43	Z43	X44	Y44	Z44	X45	Y45	Z45	X46	Y46	Z46	X47	Y47	Z47	X48	Y48	Z48	X49	Y49	Z49	X50	Y50	Z50	X51	Y51	Z51	X52	Y52	Z52	X53	Y53	Z53	X54	Y54	Z54	X55	Y55	Z55	X56	Y56	Z56	X57	Y57	Z57	X58	Y58	Z58	X59	Y59	Z59	X60	Y60	Z60	X61	Y61	Z61	X62	Y62	Z62	X63	Y63	Z63	X64	Y64	Z64	X65	Y65	Z65	X66	Y66	Z66	X67	Y67	Z67	X68	Y68	Z68	X69	Y69	Z69	X70	Y70	Z70	X71	Y71	Z71	X72	Y72	Z72	

135	1.117	2446.805	859.65103	-201.189	2506.724724030091	848.4944656270909	-234.51374328240308	2401.1882921598844	450.12008240573357	-271.7557930355576	2466.775427390335	61.80355334805117	-371.7782281342706	2425.2959509421426	-28.844057734917882	-225.97451657144632	2394.8265475786375	842.4332086960511	-154.30933955407147	2271.371214220962	449.94000888419043	-80.22542275153259	2205.751917492642	73.3396179364834	84.2889722657205	2255.636411551174	24.236870093889568	259.1929795084514	2408.408382152108	984.2700540957998	-258.4488543066293	2359.6527387200754	1055.2013481025954	-302.24343182222987	2303.125831454533	1124.3392210645234	-347.8947537597003	2241.1783422662434	1182.9006933962662	-391.90757685572567	2174.0673977764395	1245.491898996628	-435.15747994321595	2131.9321879155004	1318.8122535389884	-394.54144517456115	2109.1723245988946	1407.9991969524406	-266.0959738386226	2208.71218923935	1229.7097848534113	-435.25821649381857	2262.5569318472067	1232.921873942455	-487.680222894771	2350.9432889387235	1056.8425093259866	-474.81307906172964	2425.420777241374	1026.2290008962177	-552.8019282752904	2431.791459202491	1045.2638321851707	-558.3401835299347	2431.244427519503	1056.4431771074258	-572.430354768409	2431.7359172547185	1061.422670593671	-582.2504093306178	2432.892010887551	1063.17356347787	-590.4435052044854	2436.6423791627994	1037.0974620908594	-558.1030115304828	2452.0952503136778	1042.6715615138298	-569.5800961717893	2456.7652598437116	1045.774663364799	-581.6946706698592	2454.419485978013	1049.1310065848375	-590.595151385258	2448.937201419828	1052.871698778801	-598.8854122246694	2438.18827474989	1029.2352389216296	-557.9205594192879	2454.098455793803	1030.4195911767993	-569.0151001218554	2459.340613266085	1032.7492385029652	-582.1783587376532	2456.580697879474	1036.2915837997846	-592.8895209416196	2450.616189382428	1040.1381276722898	-601.9474739352426	2438.9566705864827	1023.5289813363851	-557.4592021224527	2454.0888067667433	1019.6095819755295	-566.8858287468776	2458.7815242080205	1020.5585530649196	-578.2845427308647	2456.185005188631	1023.4010536330949	-588.5767890808257	2450.607969333831	1026.745596844701	-597.0748146145233	2438.8388211035813	1016.8644143952066	-556.9067370310487	2452.8869961918226	1009.131289050763	-565.0831025503643	2456.7711217813444	1008.2209849186922	-574.0538230923177	2454.9383386802824	1009.4863870642662	-581.4851094204928	2450.033170871588	1011.9841332408317	-588.9692938406167	2183.554334694813	1222.1533395374092	-405.08744047182756	2148.032063037963	1174.0101295196644	-353.7119796452137	2231.8080980032582	1067.181906435856	-470.0647138074454	2364.463939407935	1038.7034126850633	-446.7546722490174	2365.0928055285467	1058.1826258177502	-450.7599958999677	2374.915474575012	1061.1521975992493	-468.4932321954846	2381.6986294165904	1060.7875426409144	-482.6282556917682	2387.3043963609525	1058.4024669935663	-495.939532468895	2363.9933144851425	1052.423943319668	-456.8355896708926	2367.1830451998794	1059.2825471309318	-481.86573652512726	2374.485780637893	1057.781412747507	-502.9845668714425	2381.615169681037	1054.8537359174863	-514.7484827136567	2389.2627088829654	1051.0852036766744	-523.5642914517189	2363.9679049943743	1045.2705539713363	-460.9967894154219	2367.063879159697	1048.0927470763113	-487.66017767011033	2375.0252668193216	1045.4807565743067	-511.17751937041265	2383.623088513521	1041.4812473080383	-525.5969820156216	2391.989175951519	1037.1305713424792	-535.3532964012685	2363.817210833731	1040.0908282714315	-463.2770234613004	2366.3107500078704	1038.2675638898438	-489.09095083587073	2373.2381025159452	1034.9904659332144	-510.029904154621	2381.5251124649717	1030.6013026379542	-524.1728835240319	2389.388371116605	1026.2587978888312	-533.4572902442898	2363.9556460899153	1033.5348855046805	-465.3447733178304	2366.1567736568845	1027.988075864567	-490.2337988010752	2371.675003279738	1023.8106314032906	-507.57675324253603	2377.7055787354175	1019.8577929015164	-518.1712516163956	2384.6630895848593	1015.5786170747274	-526.5560314365803
136	1.125	2446.805	859.65103	-201.189	2506.3073369224676	848.3608715571107	-234.57188814527643	2401.2614041678544	449.888861650685	-271.5941457407427	2467.2916622556977	62.04904430075337	-372.26452994027454	2426.3756486953266	-28.791785006281142	-226.66466270472853	2395.219917460049	842.5567583032766	-154.25781305890658	2271.743731421292	450.1260050204392	-79.89978190544024	2205.950136397912	73.50569861757552	84.47894796380417	2256.052691088747	24.30145707123329	259.28138523287896	2408.5386251520576	984.3223696527695	-258.4159488944671	2359.8521475825937	1055.342221786985	-302.14542921350267	2303.4063729364675	1124.5979438831914	-347.72230658932983	2241.5373231674766	1183.2981075409607	-391.65755134168086	2174.5081054973725	1246.031651682166	-434.8194829860281	2132.345839575527	1319.3593329001205	-394.26502518575904	2109.590455916364	1408.6147384654714	-265.8938743668562	2209.0150605965628	1230.1580927288169	-434.8878959682011	2262.452149832684	1233.3204753483694	-486.9866979497235	2350.9589423555985	1057.806266653223	-473.56456157792707	2425.268565083191	1027.8225287026944	-551.1668263659551	2431.661800714772	1047.0173854749087	-556.59262405268	2431.2215462741137	1058.3218468682849	-570.6276039526912	2431.7822018428315	1063.381956828566	-580.4176213615959	2432.991511280774	1065.1944909251715	-588.592864304722	2436.486094582979	1038.8465090854615	-556.3703175170499	2451.9571734143187	1044.6160909003931	-567.7506607737595	2456.693729516399	1047.8330008102482	-579.8241379566663	2454.4217158475776	1051.2380272848206	-588.7141332460648	2449.0223312217395	1055.004131302191	-597.005880880248	2438.019801661908	1030.9587033569474	-556.2153126031071	2453.941128911331	1032.319895186095	-567.2303288104946	2459.2543066879757	1034.7696912608308	-580.3527133144502	2456.5826109662457	1038.368838195936	-591.0531336443074	2450.708439229865	1042.2422455427368	-600.1136380208693	2438.778542515411	1025.229610403965	-555.7755842211949	2453.910596549178	1021.4495217328116	-565.1490449899135	2458.6635703382995	1022.4988002535243	-576.516317274636	2456.1512739469094	1025.3937514271415	-586.8004179985983	2450.658760806892	1028.7624437041522	-595.3018988354198	2438.6535845207827	1018.531303477726	-555.2526707638027	2452.695377620634	1010.9059658663239	-563.3976821954891	2456.62518669197	1010.0685014062954	-572.3499866401075	2454.852596453724	1011.3685368777979	-579.7786044324488	2450.0215864407082	1013.8855945126418	-587.2677272235734	2184.0824137405907	1222.6821420306562	-404.8524010927018	2148.8776873324055	1174.855485672529	-353.64688046044904	2232.20611140595	1068.0775431435482	-469.24198066972235	2364.12347098147	1039.8231597212957	-445.9141932006705	2364.8467506192387	1059.4205695096102	-449.8887657281799	2374.7167602823934	1062.4281895195666	-467.4999603241738	2381.5257551964824	1062.084618641673	-481.5447710840956	2387.1469675182275	1059.712491205298	-494.7763779361294	2363.7343688603137	1053.6617678570408	-455.94975047040356	2367.0049611077493	1060.6442377532514	-480.861229857083	2374.342659097319	1059.184258503293	-501.8605102313728	2381.481609316601	1056.2522389618819	-513.5432634087726	2389.1288550466134	1052.459923066871	-522.2872825336199	2363.6857490500283	1046.4872073605336	-460.0991274114948	2366.848049819298	1049.4187844460637	-486.6403921823691	2374.844236486589	1046.8484472069833	-510.0260563295678	2383.451989747032	1042.8421376621425	-524.3470101822802	2391.8169692984625	1038.4646812899334	-534.0244913378313	2363.5167751165854	1041.2898160448192	-462.3743564430667	2366.0544426928323	1039.5505453196613	-488.0754159896591	2373.0085922311046	1036.3062533344187	-508.8985414710372	2381.3033071254113	1031.9086751903164	-522.9459438412824	2389.1646356143196	1027.5401063594018	-532.1559593203591	2363.6303465792143	1034.7063996083914	-464.437271307609	2365.857258082133	1029.2212338615761	-489.22082283669147	2371.39123958198	1025.0642248155077	-506.46986585464043	2377.4246732015263	1021.1024266958884	-516.9940844068416	2384.378890626527	1016.7985414404048	-525.3126405699146
137	1.133	2446.805	859.65103	-201.189	2505.889460406972	848.2262606327654	-234.6301707095826	2401.328449630683	449.6593460434803	-271.44558025482667	2467.8496645759174	62.2990619023706	-372.74460150743283	2427.500767898159	-28.734018242462454	-227.34656377043044	2395.6136895745462	842.6822006353207	-154.20416196553398	2272.128441937871	450.3047530978547	-79.6047574084691	2206.1865080990597	73.6678270955151	84.65042668235836	2256.5118634506766	24.367412974832668	259.3506890923755	2408.6692663500667	984.3709289587632	-258.39169602077914	2360.0538535442433	1055.4785671971672	-302.05926207185877	2303.6930900993507	1124.8532472997097	-347.5644958059734	2241.906101823025	1183.6952611735812	-391.4227296143508	2174.962169685097	1246.5745169300644	-434.4969537160931	2132.7714751771923	1319.910826648234	-394.00694762116575	2110.0100914971426	1409.240852677146	-265.7160841451698	2209.3307724676497	1230.607774819305	-434.53132490313607	2262.364530913777	1233.7082104459016	-486.31105901835264	2350.9912524500214	1058.7748497649152	-472.36367291368015	2425.032952084411	1029.53168776442	-549.6203261197644	2431.3938105977627	1048.8952865123995	-554.9303868083892	2431.0544523467656	1060.3270831379236	-568.9072933860449	2431.686875356156	1065.472660718049	-578.6614900070174	2432.9572957049677	1067.3537122160592	-586.8108339713154	2436.206803744508	1040.7345830730853	-554.7076733610634	2451.6761079759617	1046.738959214529	-565.9552341143042	2456.4846800528467	1050.0862707681301	-577.9703069872152	2454.296562823834	1053.5386435216512	-586.8491907429714	2448.9930113736546	1057.3211940234578	-595.1487404385972	2437.748139973926	1032.8283238549577	-554.5714857341138	2453.671842429241	1034.4085535883264	-565.4671541457109	2459.0647105501034	1036.9974036566139	-578.528766521802	2456.494758651974	1040.6521233412464	-589.2172007718236	2450.7257016856524	1044.5427691043908	-598.2869276346573	2438.511581030724	1027.0805623521198	-554.1480966248698	2453.64769602488	1023.4816267577543	-563.4277925513763	2458.471260294543	1024.648445103521	-574.7453054691579	2456.057711694039	1027.595057968106	-585.0195480636219	2450.6643171775413	1030.97903411528	-593.5305123613394	2438.3978828776344	1020.3510889907752	-553.6505555569664	2452.447870405666	1012.873981912851	-561.724012712746	2456.435959488994	1012.1241407033014	-570.6418982844907	2454.736245494675	1013.4587107182638	-578.0659527913973	2449.993524735605	1015.987501585494	-585.564981839211	2184.621940204092	1223.2135021126644	-404.63442125924564	2149.7456041565497	1175.676745642428	-353.7087247418021	2232.764862442938	1069.1383186124938	-468.4463724723572	2363.921750589207	1041.1190384328697	-445.06362677119444	2364.7414011892583	1060.832333159139	-449.0010986088348	2374.6643324884885	1063.87633926078	-466.48270896979056	2381.503936161928	1063.5530338394342	-480.43264424237503	2387.145316338044	1061.1934578578748	-493.581199397008	2363.6194484395537	1055.0744128888468	-455.04922146219474	2366.982326339971	1062.179946691722	-479.8362387806979	2374.3630305106785	1060.7605010038885	-500.7107765787933	2381.5149919186083	1057.8235096308108	-512.308470535033	2389.1637569421923	1054.0067292549406	-520.9770231758959	2363.549625573308	1047.8796244978612	-459.1885235942756	2366.7904715030913	1050.9203011902916	-485.6029570418237	2374.8304603703714	1048.3910711057222	-508.85152736140935	2383.4524170793793	1044.377262751069	-523.0693936080967	2391.8183275956862	1039.9723088831959	-532.6640690774972	2363.36350232782	1042.665249881801	-461.4601472489408	2365.9572481566984	1041.0103270385182	-487.0453782150505	2372.9462592757254	1037.7984923131407	-507.7482087763594	2381.2529113133805	1033.3918949866227	-521.6957573807401	2389.1142811917334	1028.9966174211725	-530.8277179957304	2363.4531209234865	1036.0551525930498	-463.51988808918395	2365.717380592367	1030.6324550928775	-488.1963255651422	2371.2738490683987	1026.495806078101	-505.3482980547485	2377.313370140349	1022.5247036584291	-515.7993208869586	2384.2661135359963	1018.1955940952093	-524.0485261691731
138	1.142	2446.805	859.65103	-201.189	2505.471044165677	848.0950349536981	-234.68570963865233	2401.3995048117927	449.43258293452755	-271.3098124934963	2468.4115200533565	62.554215844910395	-373.26817390123887	2428.6281627124986	-28.67036938003861	-228.07237249976416	2396.0088666402867	842.8053048932998	-154.15147652163188	2272.5112678275877	450.4787556052324	-79.3317578653769	2206.4290246022456	73.82255532600232	84.79809527364928	2256.989482052586	24.4269213044992	259.3929111108746	2408.7961625086164	984.4146859538121	-258.3753530111212	2360.2515006495996	1055.6085450035998	-301.9830503964865	2303.979052897371	1125.1037145620433	-347.418180686327	2242.2798300730474	1184.0925374794901	-391.200482558236	2175.4279057878557	1247.1235049697964	-434.188229857772	2133.226039500496	1320.4714235827648	-393.7574016067028	2110.4831016721646	1409.8681880515321	-265.53675755186816	2209.657390225859	1231.0606704479544	-434.1852537569836	2262.2981390052623	1234.080922489678	-485.6442766561803	2351.0346962934477	1059.7182182040103	-471.1639438024605	2424.7260556486717	1031.257592942948	-548.1351365012671	2431.091090452826	1050.7822146845706	-553.3408064057746	2430.8505950819767	1062.333813491744	-567.2664771735487	2431.548399412888	1067.5570765441241	-576.9919333819529	2432.8703539435746	1069.4979741973436	-585.1232668388215	2435.881141117191	1042.6207955949133	-553.1285643236357	2451.3560043927364	1048.82675805981	-564.2794104580105	2456.2265478442205	1052.287086099588	-576.253138957527	2454.111250555073	1055.7837903151951	-585.1224153672014	2448.89110447785	1059.5855471530033	-593.4248678235806	2437.4155990568565	1034.6906056845398	-553.015877047119	2453.340989167298	1036.4545125942475	-563.8299154589861	2458.800626535734	1039.162839250714	-576.8498622069	2456.31811969103	1042.8691999474622	-587.528357136982	2450.640119932455	1046.7799624225893	-596.6020642769482	2438.17342714723	1028.9210657242656	-552.611319894488	2453.304394589126	1025.468659988736	-561.8335163292004	2458.1852861830057	1026.735391299078	-573.1183665437225	2455.855627381363	1029.729572737245	-583.384961779198	2450.547632460214	1033.1314001222083	-591.9005895633277	2438.057920295113	1022.1584535531091	-552.1401587085027	2452.1000143776682	1014.796316005686	-560.176307269545	2456.1326859157884	1014.1192525276309	-569.0739954295169	2454.493518959078	1015.4850219732083	-576.4953526554901	2449.8260791119296	1018.027611123506	-584.0001686184655	2185.1693114337318	1223.749818364606	-404.43279612369975	2150.637377904684	1176.4682592014965	-353.9126342394858	2233.479782232539	1070.3955342458828	-467.704621099033	2363.7773896277818	1042.7409709849353	-444.1596519273731	2364.6960775403904	1062.56750899629	-448.05666115142515	2374.676899018415	1065.644617443425	-465.40342304715057	2381.5512457796813	1065.3394634897693	-479.25520172797246	2387.2168132723386	1062.9908184704404	-492.3182993714394	2363.567256133796	1056.8109156022504	-454.0932651980219	2367.0328917296547	1064.036444654519	-478.7529915957734	2374.463597938844	1062.6549760966777	-499.499356713304	2381.631405242066	1059.711296792512	-511.00897028968114	2389.283008230457	1055.868540884193	-519.5989541343287	2363.47767817162	1049.5964468640516	-458.2235699517881	2366.808062503626	1052.7435255636728	-484.5089905837178	2374.899644008075	1050.25269627572	-507.6168755993849	2383.5392948458916	1046.22935720952	-521.7280805692504	2391.9076233229844	1041.7952723906815	-531.2365928532132	2363.2751735219595	1044.365558054562	-460.4924358428601	2365.9355375278365	1042.7929877342583	-485.9606698991871	2372.966342804683	1039.611341149421	-506.5402320545462	2381.2883740987936	1035.1938055127748	-520.3845600355703	2389.151218912529	1030.770308950431	-529.4353450700156	2363.341339818957	1037.7293754654238	-462.54993153743925	2365.6529626606934	1032.3676909518774	-487.1188079114227	2371.237649372517	1028.2497347685064	-504.17157801575337	2377.2858567352973	1024.2680010577592	-514.5470682899042	2384.238439013867	1019.9123676345073	-522.7242311615222
